<?xml version="1.0" encoding="utf-8"?>
<!-- Generator: Adobe Illustrator 27.5.0, SVG Export Plug-In . SVG Version: 6.00 Build 0)  -->
<svg version="1.1" id="Ñëîé_1" xmlns="http://www.w3.org/2000/svg" xmlns:xlink="http://www.w3.org/1999/xlink" x="0px" y="0px"
	 viewBox="0 0 3000 2000" style="enable-background:new 0 0 3000 2000;" xml:space="preserve">
<rect id="_x39_" style="fill:#FFFFFF;" width="3000" height="2000"/>
<g>
	<g id="_x38_">
		<path style="fill:#DCE6FF;" d="M389.867,1727.008c-5.279-13.754-10.502-28.006-15.523-42.358l12.376-3.13
			c4.989,14.26,10.177,28.419,15.422,42.081L389.867,1727.008z M2603.833,1709.246l-12.814-1.345
			c2.127-14.641,4.148-29.386,6.005-43.825l12.835,1.194C2607.995,1679.759,2605.968,1694.555,2603.833,1709.246z M360.09,1641.984
			c-4.519-14.184-8.902-28.633-13.027-42.944l12.54-2.613c4.1,14.225,8.457,28.586,12.948,42.686L360.09,1641.984z
			 M2615.145,1621.22l-12.853-1.033c1.634-14.7,3.146-29.487,4.496-43.948l12.87,0.867
			C2618.304,1591.624,2616.785,1606.465,2615.145,1621.22z M335.266,1555.844c-3.729-14.451-7.277-29.063-10.546-43.432
			l12.676-2.084c3.248,14.279,6.775,28.802,10.481,43.163L335.266,1555.844z M2623.364,1532.932l-12.885-0.693
			c1.093-14.69,2.052-29.507,2.848-44.04l12.897,0.511C2625.424,1503.303,2624.462,1518.182,2623.364,1532.932z M315.467,1468.764
			c-2.871-14.628-5.529-29.379-7.9-43.844l12.787-1.515c2.356,14.368,4.996,29.02,7.848,43.552L315.467,1468.764z
			 M2628.195,1444.448l-12.906-0.319c0.504-14.755,0.851-29.588,1.032-44.088l12.911,0.116
			C2629.049,1414.724,2628.701,1429.626,2628.195,1444.448z M301.087,1380.899c-1.925-14.775-3.6-29.636-4.98-44.168l12.869-0.884
			c1.37,14.425,3.033,29.175,4.944,43.843L301.087,1380.899z M2616.374,1355.95c-0.152-14.766-0.482-29.594-0.981-44.075
			l12.906-0.321c0.5,14.555,0.833,29.459,0.986,44.299L2616.374,1355.95z M292.722,1292.448
			c-0.856-14.862-1.424-29.784-1.688-44.351l12.91-0.17c0.261,14.445,0.825,29.243,1.673,43.984L292.722,1292.448z
			 M2613.318,1267.839c-0.886-14.746-1.977-29.542-3.239-43.977l12.875-0.815c1.271,14.519,2.366,29.401,3.258,44.231
			L2613.318,1267.839z M304.066,1203.927l-12.909-0.226c0.36-14.902,1.053-29.828,2.061-44.362l12.889,0.646
			C305.109,1174.38,304.422,1189.163,304.066,1203.927z M2605.6,1179.973c-1.725-14.743-3.678-29.469-5.804-43.769l12.809-1.377
			c2.141,14.395,4.107,29.219,5.844,44.059L2605.6,1179.973z M310.202,1116.158l-12.847-1.097
			c1.754-14.846,3.892-29.684,6.355-44.103l12.777,1.578C314.051,1086.796,311.936,1101.473,310.202,1116.158z M2592.567,1092.603
			c-2.686-14.651-5.635-29.246-8.765-43.38l12.688-2.032c3.156,14.247,6.128,28.957,8.835,43.721L2592.567,1092.603z
			 M1065.579,1091.054c-17.94-2.405-30.917-9.349-48.893-21.341l8.161-8.507c15.748,10.478,27.121,16.763,42.108,18.932
			L1065.579,1091.054z M1110.375,1064.934l-11.498-4.993c5.91-9.841,11.135-23.497,15.53-40.589l12.613,2.344
			C1122.324,1039.962,1116.879,1054.105,1110.375,1064.934z M978.794,1038.227c-10.285-9.739-21.277-20.948-33.603-34.267
			l10.146-6.789c12.152,13.13,22.967,24.16,33.064,33.72L978.794,1038.227z M325.111,1029.223l-12.675-2.092
			c3.345-14.653,7.129-29.264,11.249-43.427l12.534,2.636C332.151,1000.324,328.414,1014.752,325.111,1029.223z M2573.367,1006.128
			c-3.823-14.5-7.948-28.874-12.259-42.724l12.483-2.809c4.353,13.984,8.515,28.496,12.373,43.132L2573.367,1006.128z
			 M1135.707,977.514l-12.805-1.401c1.983-13.104,3.76-27.454,5.433-43.87l12.863,0.948
			C1139.509,949.76,1137.713,964.258,1135.707,977.514z M913.568,968.591c-10.495-12.052-21.381-24.791-30.76-35.785l10.451-6.446
			c9.362,10.973,20.225,23.686,30.685,35.698L913.568,968.591z M1858.831,967.688c-10.055,0-19.921-2.554-29.322-7.592l6.884-9.288
			c14.123,7.581,28.016,7.598,43.018,1.551l5.555,9.91C1876.096,965.865,1867.303,967.688,1858.831,967.688z M349.952,944.034
			l-12.347-3.21c5.13-14.264,10.758-28.451,16.729-42.166l12.108,3.811C360.558,915.986,355.01,929.971,349.952,944.034z
			 M1927.186,933.568l-9.486-7.447c9.789-9.015,20.283-20.135,32.082-33.997l10.46,6.437
			C1948.139,912.779,1937.327,924.23,1927.186,933.568z M1792.797,926.019c-8.356-10.96-16.636-23.868-25.314-39.458l11.67-4.696
			c8.431,15.146,16.437,27.636,24.479,38.183L1792.797,926.019z M2546.843,921.158c-5.201-14.224-10.751-28.227-16.496-41.619
			l12.13-3.762c5.815,13.557,11.432,27.729,16.695,42.122L2546.843,921.158z M852.209,897.015
			c-11.813-13.727-21.657-24.996-30.981-35.465l10.293-6.628c9.368,10.518,19.252,21.833,31.108,35.61L852.209,897.015z
			 M1145.082,888.856l-12.885-0.709c0.979-12.862,1.975-27.319,3.044-44.196l12.892,0.591
			C1147.062,861.458,1146.063,875.953,1145.082,888.856z M385.796,861.831l-11.812-4.432c7.087-13.649,14.641-27.052,22.667-40.159
			l11.449,5.075C400.201,835.21,392.771,848.398,385.796,861.831z M1989.82,861.828l-10.789-6.032
			c9.175-11.861,18.653-24.427,28.246-37.122l10.862,5.934C2008.523,837.336,1999.036,849.913,1989.82,861.828z M1746.699,845.592
			c-5.848-12.473-11.891-26.081-18.475-41.602l12.144-3.725c6.536,15.405,12.529,28.902,18.324,41.261L1746.699,845.592z
			 M2511.354,838.745c-6.941-13.748-14.284-27.103-21.824-39.694l11.507-4.981c7.667,12.803,15.13,26.377,22.182,40.344
			L2511.354,838.745z M789.35,826.763c-11.715-12.365-22.62-23.37-33.338-33.645l9.659-7.285
			c10.854,10.406,21.889,21.541,33.734,34.042L789.35,826.763z M1150.82,800.257l-12.895-0.553
			c0.87-14.667,1.734-29.341,2.656-44.273l12.894,0.576C1152.553,770.931,1151.689,785.597,1150.82,800.257z M2046.446,787.53
			l-10.771-6.053c10.787-13.879,20.436-25.885,29.497-36.703l10.516,6.368C2066.715,761.855,2057.149,773.758,2046.446,787.53z
			 M433.704,784.431l-10.882-5.908c10.146-13.511,20.607-25.713,31.093-36.268l9.863,7.084
			C453.661,759.523,443.543,771.33,433.704,784.431z M1710.985,762.097c-5.921-14.754-11.731-29.516-16.632-42.01l12.248-3.474
			c4.895,12.477,10.695,27.216,16.604,41.938L1710.985,762.097z M720.512,761.329c-13.196-10.925-26.172-20.575-38.566-28.684
			l7.874-8.7c12.789,8.367,26.146,18.299,39.699,29.518L720.512,761.329z M2464.462,760.859
			c-9.251-12.836-18.952-24.977-28.831-36.084l10.297-6.622c10.133,11.392,20.073,23.831,29.542,36.97L2464.462,760.859z
			 M499.992,719.472l-7.831-8.728c15.419-10.001,31.466-17.213,47.695-21.436l3.778,10.498
			C528.873,703.646,514.19,710.263,499.992,719.472z M2106.829,716.114l-10.03-6.912c12.108-12.703,23.582-23.635,35.076-33.418
			l9.133,7.759C2129.834,693.055,2118.653,703.709,2106.829,716.114z M1156.368,711.797l-12.888-0.653
			c1.118-15.957,2.228-30.449,3.393-44.302l12.878,0.783C1158.589,681.435,1157.482,695.884,1156.368,711.797z M639.26,709.499
			c-16.111-6.817-31.958-11.168-47.1-12.932l1.753-10.877c16.537,1.927,33.729,6.63,51.1,13.981L639.26,709.499z M2402.417,691.753
			c-12.429-10.828-25.3-20.386-38.252-28.408l7.602-8.874c13.534,8.382,26.956,18.346,39.89,29.614L2402.417,691.753z
			 M1677.884,678.078c-6.423-16.334-11.716-29.652-16.658-41.914l12.213-3.559c4.954,12.288,10.257,25.631,16.689,41.992
			L1677.884,678.078z M2179.649,655.519l-7.4-8.995c15.879-9.446,31.917-16.441,47.67-20.791l3.987,10.441
			C2209.372,640.188,2194.481,646.697,2179.649,655.519z M2320.527,642.07c-15.99-5.735-32.177-9.284-48.109-10.55l1.2-10.931
			c17.248,1.37,34.719,5.194,51.926,11.365L2320.527,642.07z M1163.881,623.55l-12.861-0.971
			c1.609-15.403,3.359-30.279,5.203-44.215l12.831,1.227C1167.222,593.443,1165.481,608.232,1163.881,623.55z M1644.048,594.409
			c-6.239-14.807-12.118-28.342-17.974-41.378l12.062-3.917c5.888,13.108,11.798,26.713,18.067,41.592L1644.048,594.409z
			 M1175.627,535.817l-12.779-1.57c2.611-15.37,5.482-30.152,8.532-43.934l12.689,2.03
			C1181.053,505.973,1178.212,520.599,1175.627,535.817z M1606.893,512.042c-6.938-14.189-13.93-27.765-20.786-40.35l11.716-4.614
			c6.927,12.716,13.99,26.426,20.993,40.75L1606.893,512.042z M1195.033,449.383l-12.527-2.661
			c4.504-15.33,9.468-29.77,14.756-42.919l12.216,3.552C1204.309,420.212,1199.448,434.352,1195.033,449.383z M1563.177,432.292
			c-8.492-13.599-17.166-26.365-25.782-37.943l10.91-5.87c8.79,11.813,17.63,24.821,26.277,38.665L1563.177,432.292z
			 M1228.869,367.134l-11.578-4.859c8.478-14.606,17.879-27.52,27.944-38.385l10.142,6.793
			C1245.868,340.948,1236.95,353.212,1228.869,367.134z M1507.803,358.743c-11.281-12.025-22.926-22.678-34.609-31.661l8.661-8.143
			c12.199,9.38,24.325,20.469,36.042,32.958L1507.803,358.743z M1291.399,302.229l-6.961-9.246
			c15.295-8.323,32.146-13.736,50.086-16.086l1.966,10.85C1320.339,289.863,1305.169,294.735,1291.399,302.229z M1432.457,302.222
			c-15.04-6.894-30.707-11.608-46.565-14.009l2.264-10.809c17.212,2.607,34.179,7.705,50.429,15.154L1432.457,302.222z"/>
		<path style="fill:#FCB4B4;" d="M2318.593,572.852l-5.929-77.706l-44.612,3.404c-4.568-13.593-10.915-26.323-18.745-37.938
			l29.446-34.311l-59.139-50.754l-28.338,33.02c-14.427-7.598-30.111-13.032-46.592-15.893l-3.501-45.886l-77.706,5.93l3.501,45.886
			c-14.727,4.949-28.439,11.988-40.819,20.736l-31.065-26.66l-50.754,59.139l31.065,26.66
			c-6.769,13.564-11.645,28.185-14.303,43.493l-44.612,3.404l5.93,77.707l44.612-3.404c5.329,15.856,13.079,30.535,22.779,43.641
			l-28.338,33.02l59.14,50.754l29.446-34.311c12.668,5.977,26.213,10.319,40.343,12.772l3.501,45.886l77.707-5.93l-3.501-45.886
			c14.727-4.949,28.439-11.988,40.819-20.736l36.206,31.073l50.754-59.139l-36.207-31.073c6.769-13.564,11.645-28.185,14.303-43.493
			L2318.593,572.852z M2127.585,619.604c-92.375,12.596-112.038-127.344-20.084-140.979
			C2199.871,466.029,2219.535,605.969,2127.585,619.604z"/>
		<path style="fill:#8A9EDD;" d="M2639.28,1002.475v-37.54h-28.752c-1.051-5.87-2.566-11.577-4.542-17.068l24.872-14.36
			l-18.77-32.511l-24.905,14.379c-3.807-4.498-7.982-8.673-12.48-12.48l14.379-24.905l-32.51-18.77l-14.36,24.872
			c-5.491-1.976-11.198-3.49-17.068-4.542v-28.752h-37.54v28.752c-5.869,1.051-11.576,2.566-17.067,4.542l-14.36-24.872
			l-32.511,18.77l14.379,24.905c-4.499,3.808-8.673,7.982-12.48,12.48l-24.905-14.379l-18.77,32.511l24.873,14.36
			c-1.976,5.491-3.491,11.198-4.542,17.068h-28.752v37.54h28.752c1.051,5.869,2.565,11.576,4.542,17.067l-24.873,14.36l18.77,32.51
			l24.905-14.379c3.808,4.498,7.982,8.673,12.48,12.48l-14.379,24.905l32.511,18.77l14.36-24.872
			c5.491,1.976,11.198,3.49,17.067,4.542v28.752h37.54v-28.752c5.87-1.051,11.577-2.566,17.068-4.542l14.36,24.872l32.51-18.77
			l-14.379-24.905c4.499-3.807,8.673-7.982,12.48-12.48l24.905,14.379l18.77-32.51l-24.872-14.36
			c1.976-5.491,3.49-11.198,4.542-17.067H2639.28z M2506.375,1036.628c-69.568-1.188-69.557-104.669,0.002-105.847
			C2575.942,931.969,2575.932,1035.45,2506.375,1036.628z"/>
		<path style="fill:#D4E8FF;" d="M635.906,1786.329c0,0-301.806-724.182-75.512-878.256
			c151.255-102.984,298.928,156.295,490.285,36.195c170.361-106.923,61.302-356.745,227.17-477.19
			c204.006-148.139,544.774,587.343,784.174,473.251c376.584-179.47,606.802,103.651,345.3,847.321L635.906,1786.329z"/>
		<path style="fill:#EEF7FF;" d="M2693.441,1479.081c-107.142-13.504-97.443,189.436-250.167,189.436
			c-139.635,0-214.356-453.407-367.586-361.191c-616.02,370.733-136.717-260.135-550.935-272.466
			c-187.298-5.576-312.104,164.238-358.128,464.901c-66.715,271.81-221.434-207.314-380.658-162.766
			c-101.195,28.312-89.605,331.522-229.24,331.522c-152.724,0-142.663-170.65-249.805-157.146
			c-115.356,14.539-142.389,279.124-142.389,279.124h2670.936C2835.468,1790.495,2808.798,1493.62,2693.441,1479.081z"/>
		<path style="fill:#DCE6FF;" d="M2590.775,1692.08c-98.568-5.766-82.484,46.328-222.986,46.328
			c-128.461,0-124.931-116.751-210.896-141.564c-158.308-45.694-288.821,185.57-350.196,69.503
			c-116.569-307.975-456.55-462.422-613.395,0c-61.375,116.066-204.902-91.037-350.196-69.503
			c-89.434,13.255-82.435,141.564-210.896,141.564c-140.502,0-124.418-52.094-222.986-46.328
			c-106.125,6.208-137.823,98.415-137.823,98.415h2457.197C2728.599,1790.495,2696.9,1698.289,2590.775,1692.08z"/>
		<path style="fill:#8A9EDD;" d="M1556.398,326.823l-0.573-32.527l-18.674,0.329c-1.572-5.776-3.906-11.236-6.885-16.268
			l13.109-13.579l-23.405-22.595l-12.616,13.068c-5.826-3.519-12.23-6.166-19.028-7.762l-0.338-19.208l-32.527,0.572l0.338,19.208
			c-6.258,1.703-12.144,4.301-17.517,7.644l-12.294-11.869l-22.595,23.405l12.294,11.869c-3.152,5.487-5.541,11.461-7.023,17.775
			l-18.674,0.329l0.572,32.527l18.674-0.329c1.833,6.738,4.704,13.044,8.426,18.743l-12.616,13.068l23.405,22.595l13.109-13.579
			c5.133,2.8,10.672,4.94,16.5,6.308l0.338,19.208l32.527-0.572l-0.338-19.207c6.258-1.703,12.144-4.301,17.517-7.644l14.329,13.833
			l22.595-23.405l-14.329-13.833c3.152-5.487,5.542-11.461,7.023-17.775L1556.398,326.823z M1475.658,341.638
			c-38.803,2.992-43.578-55.805-4.925-59.24C1509.533,279.406,1514.309,338.203,1475.658,341.638z"/>
		<path style="fill:#8A9EDD;" d="M640.033,1129.142l-1.063-29.171l-25.781,0.939c-2.49-20.529-8.589-39.884-17.627-57.444
			l21.831-13.688l-15.506-24.731l-21.852,13.701c-12.147-16.103-27.059-29.966-44.004-40.91l12.074-22.791l-25.794-13.665
			l-12.062,22.769c-18.172-7.736-37.919-12.41-58.575-13.399l-0.939-25.781l-29.171,1.063l0.939,25.781
			c-20.529,2.49-39.884,8.589-57.444,17.627l-13.688-21.831l-24.731,15.506l13.701,21.852
			c-16.103,12.147-29.966,27.059-40.91,44.004l-22.791-12.074l-13.665,25.794l22.769,12.062
			c-7.736,18.172-12.41,37.919-13.399,58.575l-25.78,0.939l1.063,29.171l25.781-0.939c2.49,20.529,8.589,39.884,17.627,57.444
			l-21.831,13.687l15.506,24.731l21.851-13.7c12.148,16.103,27.059,29.966,44.004,40.909l-12.074,22.791l25.794,13.665
			l12.062-22.769c18.171,7.736,37.918,12.41,58.574,13.399l0.939,25.781l29.171-1.063l-0.94-25.78
			c20.529-2.49,39.884-8.589,57.444-17.627l13.688,21.831l24.731-15.506l-13.701-21.852c16.103-12.147,29.966-27.059,40.909-44.004
			l22.791,12.074l13.665-25.794l-22.77-12.062c7.736-18.171,12.41-37.919,13.399-58.575L640.033,1129.142z M447.352,1232.904
			c-146.26,2.83-154.16-214.594-8.1-222.395C585.508,1007.678,593.408,1225.103,447.352,1232.904z"/>
	</g>
	<g id="_x37_">
		<path style="fill:#8E4A35;" d="M1185.324,649.948c0,0,99.302-23.489,155.08,94.979c36.508,77.54,3.761,74.057,62.582,158.33
			c70.214,100.596-54.17,165.089-103.754,177.67c-65.036,16.501-20.894,112.122-149.807,106.213
			C1020.513,1181.231,734.978,741.041,1185.324,649.948z"/>
		<path style="fill:#CE4ABF;" d="M1247.978,1093.277c3.387,8.046,153.804,452.334,155.982,457.531
			c63.347,81.312,138.657,69.529,138.657,69.529C1680.489,1391.227,1440.276,1093.277,1247.978,1093.277z"/>
		<path style="fill:#E8C0A6;" d="M1395.58,1567.378c0.71,30.57,28.29,181.59,4.42,203.12c0,0-572.61,34.39-575.05,0
			c-16.129-365.523,183.683-549.883,294.44-685.24c0.02,0.03,105.59,6.61,105.59,6.67l23,1.35c52.8,72.71,136.1,212.06,161.04,277.7
			C1434.07,1444.768,1393.78,1489.048,1395.58,1567.378z"/>
		<path style="fill:#D1A68F;" d="M1247.98,1093.278c0,0-1.02,48.42-39.32,60.67c-33.87,10.84-78.97,2.63-107.29-47.15
			c6.5-7.6,12.54-14.77,18.02-21.54c0.02,0.03,105.59,6.61,105.59,6.67L1247.98,1093.278z"/>
		<g>
			<path style="fill:#D1A68F;" d="M1171.666,1222.52c-26.816,0-55.708-2.792-86.215-8.346
				c-67.324-12.254-120.041-34.066-120.566-34.285l3.465-8.307c0.517,0.216,52.482,21.703,118.887,33.77
				c60.882,11.063,146.736,16.261,210-21.805l4.64,7.711c-29.106,17.514-65.016,27.779-106.732,30.513
				C1187.514,1222.271,1179.68,1222.52,1171.666,1222.52z"/>
			<path style="fill:#D1A68F;" d="M1172.976,1302.012c-26.444,0-53.971-2.267-82.191-6.781
				c-66.605-10.653-114.768-30.463-115.247-30.662l3.452-8.312c0.471,0.195,47.83,19.655,113.44,30.123
				c60.314,9.622,148.869,13.4,228.227-23.238l3.772,8.172c-36.026,16.633-76.816,26.617-121.237,29.677
				C1193.299,1301.672,1183.218,1302.012,1172.976,1302.012z"/>
			<path style="fill:#D1A68F;" d="M1172.026,1381.161c-22.272,0-45.288-1.374-68.866-4.121
				c-72.971-8.503-126.871-27.52-127.407-27.711l3.022-8.478c0.528,0.188,53.636,18.908,125.64,27.273
				c66.204,7.691,162.412,7.956,244.806-34.456l4.119,8.002c-37.35,19.226-80.477,31.58-128.183,36.721
				C1208.019,1380.238,1190.271,1381.161,1172.026,1381.161z"/>
			<path style="fill:#D1A68F;" d="M1178.003,1467.034c-19.832,0-40.426-1.121-61.679-3.365
				c-78.629-8.302-139.93-29.438-140.54-29.65l2.96-8.499c0.602,0.21,61.083,21.047,138.72,29.22
				c71.281,7.504,172.063,5.569,247.376-46.259l5.103,7.414c-34.349,23.638-76.514,39.277-125.325,46.484
				C1223.606,1465.481,1201.333,1467.034,1178.003,1467.034z"/>
			<path style="fill:#D1A68F;" d="M1188.148,1551.713c-19.831,0-40.427-1.121-61.681-3.365
				c-78.629-8.302-139.93-29.438-140.54-29.651l2.961-8.499c0.602,0.21,61.083,21.048,138.72,29.221
				c71.282,7.504,172.063,5.569,247.376-46.259l5.103,7.414c-34.349,23.638-76.514,39.277-125.325,46.484
				C1233.75,1550.16,1211.479,1551.713,1188.148,1551.713z"/>
			<path style="fill:#D1A68F;" d="M1195.379,1636.391c-19.832,0-40.428-1.121-61.681-3.365
				c-78.629-8.302-139.93-29.438-140.54-29.651l2.961-8.499c0.602,0.21,61.083,21.048,138.72,29.221
				c71.283,7.504,172.063,5.569,247.377-46.259l5.103,7.414c-34.349,23.638-76.514,39.277-125.325,46.484
				C1240.98,1634.838,1218.709,1636.391,1195.379,1636.391z"/>
			<path style="fill:#D1A68F;" d="M1203.612,1721.068c-19.832,0-40.428-1.121-61.681-3.365
				c-78.629-8.302-139.93-29.438-140.54-29.651l2.961-8.499c0.602,0.21,61.083,21.048,138.72,29.221
				c71.282,7.504,172.064,5.57,247.377-46.259l5.103,7.414c-34.349,23.638-76.514,39.277-125.325,46.484
				C1249.213,1719.516,1226.942,1721.068,1203.612,1721.068z"/>
		</g>
		<path style="fill:#CE4ABF;" d="M1247.978,1093.277c0,0,64.895,158.477,94.363,255.224c61.619,202.307,17.979,437.28,17.979,437.28
			h177.702c0,0-64.888-437.28-156.529-549.11C1289.851,1124.842,1247.978,1093.277,1247.978,1093.277z"/>
		<path style="fill:#CE4ABF;" d="M1119.386,1085.261c0,0-65.369,217.283-62.065,367.41s28.799,344.681,28.799,344.681
			l-177.716-6.858c0,0-78.128-318.428-10.723-459.104C965.085,1190.714,1119.386,1085.261,1119.386,1085.261z"/>
		<path style="fill:#F99370;" d="M1105.316,1674.289l27.135,2.424l-27.135,65.561l-14.013-0.083
			C1091.303,1742.191,1070.399,1705.438,1105.316,1674.289z"/>
		<path style="fill:#A523A2;" d="M1462.938,1434.229c-2.27,0-4.324-1.556-4.864-3.861c-18.048-77.096-46.864-133.324-47.152-133.884
			c-1.268-2.453-0.308-5.47,2.146-6.737c2.451-1.269,5.469-0.308,6.737,2.146c0.295,0.569,29.679,57.904,48.006,136.196
			c0.629,2.688-1.04,5.379-3.729,6.008C1463.698,1434.186,1463.315,1434.229,1462.938,1434.229z"/>
		<path style="fill:#CE4ABF;" d="M1009.909,1769.292c12.866-3.255,69.302-23.481,81.394-27.101c0,0-12.985-35.956,14.013-67.902
			c-419.674-131.115,14.07-589.027,14.07-589.027C680.66,1071.736,321.681,1873.948,1009.909,1769.292z"/>
		<path style="fill:#F99370;" d="M1306.702,1742.178c0,0-33.797-102.37-174.25-65.465l-27.135,65.561L1306.702,1742.178z"/>
		<path style="fill:#F99370;" d="M1225.27,1043.489l-0.306,48.411l0,0c-10.308,71.75-93.921,35.927-105.577-6.639l7.133-73.074
			L1225.27,1043.489z"/>
		<path style="fill:#E57D61;" d="M1225.158,1061.183c-22.313,0.255-66.175-1.266-100.931-25.512c0,0,6.885-68.366,7.496-87.17
			c1.038-33.801-0.505-47.913,22.281-68.293c30.3-25.788,81.748-5.866,85.88,34.402
			C1242.052,933.868,1223.298,994.119,1225.158,1061.183z"/>
		<path style="fill:#F99370;" d="M1298.838,1020.075c-42.594,29.36-99.454,28.86-141.543,10.913
			c-2.385-1.024-4.813-2.045-7.075-3.177c-90.308-43.906-88.697-195.186-34.727-265.133
			c33.758-47.745,106.257-66.656,154.269-30.067c33.161,26.847,39.83,67.281,48.626,110.169
			c2.944,11.293,9.864,26.618,17.423,37.612C1364.642,923.539,1353.646,980.272,1298.838,1020.075z"/>
		<path style="fill:#E57D61;" d="M1195.765,806.454c-81.245,9.927-84.632,73.409-84.632,73.409l-24.036-38.144l87.009-103.881
			l70.105-18.942c15.631,5.115,28.94,14.592,39.342,27.41C1283.552,746.306,1277.011,796.527,1195.765,806.454z"/>
		<path style="fill:#F9F8F3;" d="M1282.057,956.749l-52.249-40.955C1217.647,949.986,1249.985,979.648,1282.057,956.749z"/>
		<path style="fill:#C16256;" d="M1253.359,869.631c5.549-6.901-5.418-15.458-10.762-8.396
			C1237.048,868.137,1248.015,876.693,1253.359,869.631z"/>
		<path style="fill:#C16256;" d="M1311.52,871.142c5.549-6.901-5.418-15.458-10.762-8.396
			C1295.21,869.647,1306.176,878.203,1311.52,871.142z"/>
		<path style="fill:#C16256;" d="M1282.056,959.331c-1.976,0.473-52.235-40.936-53.842-41.504c-1.122-0.878-1.317-2.502-0.438-3.624
			c0.975-6.329,54.359,40.916,55.875,40.511C1285.59,956.123,1284.416,959.426,1282.056,959.331z"/>
		<path style="fill:#C16256;" d="M1285.412,925.868c-4.78-0.495-15.837-0.392-14.795-6.637c0.688-1.25,2.259-1.707,3.508-1.02
			c7.951,4.689,29.79,2.8,21.047-5.201c-12.816-9.913-23.433-53.479-12.263-41.639c0.042,0.284,4.235,28.334,15.546,37.652
			C1310.06,920.765,1296.384,925.544,1285.412,925.868z"/>
		<path style="fill:#8E4A35;" d="M1269.748,732.616c1.886-71.865-211.536-187.811-327.642,71.545
			c-59.234,132.316-160.34,139.321-74.553,239.328c48.051,56.015-48.944,84.712-9.087,128.068
			c39.857,43.356,102.889,17.555,89.964,100.381c-12.925,82.826,35.534,111.762,93.394,118.127
			c57.861,6.365,153.973-134.66,98.636-200.197c-55.337-65.537,8.131-97.535-9.687-173.66
			c-17.818-76.125-51.228-95.784-51.228-95.784l25.724-62.878C1122.755,775.532,1259.737,809.536,1269.748,732.616z"/>
		<path style="fill:#A523A2;" d="M1065.682,1754.804l25.621-12.613c0,0-12.985-35.956,14.013-67.902l-34.247-12.161
			C1071.069,1662.128,1037.042,1714.071,1065.682,1754.804z"/>
		<path style="fill:#F99370;" d="M1058.687,910.143c12.016,53.079,76.481,38.706,64.989-14.431
			C1111.66,842.635,1047.195,857.007,1058.687,910.143z"/>
		<path style="fill:#C16256;" d="M1075.876,920.95c1.648-0.178,2.759-1.88,2.243-3.46c-10.335-28.105,1.868-40.21,21.035-32.519
			c3.207,1.288,5.17-3.81,1.907-4.997c-22.427-8.933-40.396,5.462-28.041,39.124C1073.411,920.341,1074.627,921.095,1075.876,920.95
			z"/>
		<path style="fill:#C16256;" d="M1100.74,916.974c7.346-1.704-7.75-25.828-28.297-27.427c-1.464-0.091-2.738,1.042-2.823,2.517
			c-0.085,1.474,1.041,2.737,2.516,2.821C1093.109,896.855,1095.292,916.656,1100.74,916.974z"/>
		
			<ellipse transform="matrix(0.9816 -0.1909 0.1909 0.9816 -93.0371 231.6407)" style="fill:#8E4A35;" cx="1155.45" cy="598.584" rx="88.941" ry="106.26"/>
		<path style="fill:#A523A2;" d="M1076.404,1673.689c-0.545,0-1.101-0.09-1.645-0.279c-35.904-12.509-70.727-32.781-98.051-57.084
			c-31.729-28.219-51.136-60.014-56.124-91.947c-10.542-67.501,23.091-154.138,24.528-157.792c1.01-2.57,3.913-3.836,6.482-2.824
			c2.57,1.01,3.835,3.912,2.825,6.482c-0.342,0.87-34.076,87.795-23.956,152.591c10.181,65.188,83.641,118.854,147.585,141.131
			c2.607,0.908,3.985,3.759,3.077,6.366C1080.407,1672.396,1078.473,1673.689,1076.404,1673.689z"/>
		<path style="fill:#A523A2;" d="M1011.547,1768.14c-2.517,0-4.682-1.895-4.963-4.454c-0.302-2.744,1.679-5.214,4.423-5.516
			c0.407-0.045,40.914-4.625,59.747-17.073c2.304-1.524,5.405-0.891,6.929,1.414c1.522,2.304,0.889,5.405-1.414,6.928
			c-20.855,13.785-62.411,18.479-64.169,18.671C1011.914,1768.13,1011.729,1768.14,1011.547,1768.14z"/>
		<path style="fill:#E57D61;" d="M1291.306,1725.563c-0.687,0-1.381-0.201-1.988-0.622c-42.319-29.278-70.717-30.042-71-30.046
			c-1.929-0.029-3.475-1.614-3.451-3.544c0.024-1.917,1.582-3.456,3.495-3.456c0.012,0,0.023,0,0.035,0
			c1.229,0.013,30.615,0.648,74.904,31.29c1.59,1.1,1.987,3.279,0.887,4.869C1293.507,1725.037,1292.416,1725.563,1291.306,1725.563
			z"/>
		<path style="fill:#E57D61;" d="M1288.062,1741.875c-0.474,0-0.955-0.097-1.416-0.301c-34.751-15.39-73.783-18.574-74.173-18.604
			c-1.927-0.149-3.368-1.833-3.218-3.76c0.15-1.928,1.839-3.389,3.759-3.219c1.641,0.127,40.586,3.292,76.467,19.183
			c1.767,0.783,2.565,2.85,1.783,4.617C1290.686,1741.098,1289.405,1741.875,1288.062,1741.875z"/>
		
			<ellipse transform="matrix(0.1602 -0.9871 0.9871 0.1602 -83.7309 2321.6895)" style="fill:#A523A2;" cx="1322.544" cy="1210.052" rx="13.173" ry="13.173"/>
		
			<ellipse transform="matrix(0.7071 -0.7071 0.7071 0.7071 -533.259 1353.6675)" style="fill:#A523A2;" cx="1367.392" cy="1320.534" rx="13.173" ry="13.173"/>
		
			<ellipse transform="matrix(0.7071 -0.7071 0.7071 0.7071 -602.6165 1403.6105)" style="fill:#A523A2;" cx="1393" cy="1429.228" rx="13.173" ry="13.173"/>
		
			<ellipse transform="matrix(0.1595 -0.9872 0.9872 0.1595 -586.3272 2236.3884)" style="fill:#A523A2;" cx="1020.233" cy="1462.535" rx="13.173" ry="13.173"/>
		
			<ellipse transform="matrix(0.2311 -0.9729 0.9729 0.2311 -732.2605 2205.7935)" style="fill:#A523A2;" cx="1029.359" cy="1566.159" rx="13.173" ry="13.173"/>
		<path style="fill:#C16256;" d="M1225.271,851.608c-0.699,0-1.377-0.367-1.744-1.019c-0.542-0.962-0.202-2.182,0.76-2.724
			c0.827-0.466,20.439-11.344,37.088-5.813c1.048,0.348,1.615,1.481,1.267,2.529c-0.349,1.049-1.482,1.613-2.529,1.267
			c-14.984-4.978-33.675,5.396-33.862,5.502C1225.941,851.525,1225.604,851.608,1225.271,851.608z"/>
		<path style="fill:#C16256;" d="M1316.232,849.906c-0.316,0-0.637-0.075-0.937-0.234c-10.006-5.316-22.19-1.742-22.312-1.706
			c-1.06,0.32-2.173-0.28-2.493-1.335c-0.319-1.056,0.275-2.171,1.331-2.493c0.561-0.17,13.859-4.103,25.35,2.001
			c0.975,0.518,1.346,1.729,0.828,2.705C1317.641,849.521,1316.948,849.906,1316.232,849.906z"/>
		<path style="fill:#163260;" d="M1048.651,905.545c2.422,77.801,95.22,76.326,95.177-1.505
			C1141.405,826.241,1048.607,827.716,1048.651,905.545z"/>
		<path style="fill:#30507F;" d="M1050.094,905.383c1.255,60.72,75.325,59.546,74.656-1.181
			C1123.495,843.484,1049.425,844.658,1050.094,905.383z"/>
		<path style="fill:#163260;" d="M1263.57,1009.762c-3.165-18.583-35.723-14.999-41.787,0.023l-98.428-63.515l-5.975,9.258
			l105.233,67.909l0.608-0.142C1232.684,1037.775,1267.712,1029.124,1263.57,1009.762z"/>
		<path style="fill:#163260;" d="M1282.057,671.997c0,0-127.994-7.574-175.375,175.175l-10.622,6.032l-13.234-5.281
			c0,0,13.412-169.844,153.052-196.46C1235.879,651.463,1274.724,643.638,1282.057,671.997z"/>
	</g>
	<path id="_x36_" style="fill:#FCB4B4;" d="M953.921,308.426C918.187,227.906,833.885,178.1,743.668,188.739
		c-101.201,11.938-179.552,97.924-179.552,202.199c0,125.71,112.829,221.476,237.144,200.855
		C931.807,570.139,1008.024,430.338,953.921,308.426z M951.055,380.938h-77.321c-0.801-32.613-5.515-63.846-13.683-91.528
		c14.133-7.2,27.346-16.015,39.454-26.312C930.229,294.809,948.625,336.88,951.055,380.938z M822.458,566.241
		c13.63-15.527,23.799-35.174,31.148-54.573c11.041,5.852,21.45,12.797,31.094,20.784
		C866.269,547.719,845.154,559.178,822.458,566.241z M650.752,532.452c9.644-7.987,20.052-14.931,31.092-20.783
		c7.346,19.392,17.515,39.043,31.146,54.571C690.919,559.36,669.73,548.169,650.752,532.452z M700.132,503.217
		c43.163-17.126,91.945-17.157,135.185-0.001C800.256,598.116,735.272,598.328,700.132,503.217z M841.506,484.158
		c-45.883-17.878-99.063-18.896-147.563,0.001c-7.036-24.783-11.414-53.172-12.214-83.22H853.72
		C852.92,430.986,848.542,459.374,841.506,484.158z M681.729,380.938c0.8-30.048,5.177-58.437,12.214-83.22
		c47.167,18.378,100.296,18.417,147.563,0.001c7.036,24.783,11.413,53.171,12.214,83.219H681.729z M712.989,215.636
		c-13.628,15.526-23.797,35.172-31.146,54.571c-11.04-5.852-21.448-12.797-31.092-20.783
		C669.156,234.18,690.217,222.735,712.989,215.636z M884.7,249.424c-9.645,7.987-20.053,14.932-31.094,20.784
		c-7.348-19.397-17.516-39.045-31.147-54.573C845.244,222.752,866.217,234.124,884.7,249.424z M835.317,278.66
		c-43.165,17.126-91.948,17.155-135.185-0.001C735.073,184.085,800.039,183.172,835.317,278.66z M635.948,263.098
		c12.106,10.296,25.318,19.11,39.451,26.311c-8.169,27.682-12.883,58.915-13.684,91.529h-77.318
		C586.827,336.88,605.222,294.809,635.948,263.098z M584.398,400.938h77.318c0.801,32.614,5.515,63.847,13.684,91.529
		c-14.133,7.2-27.345,16.015-39.451,26.311C605.223,487.068,586.827,444.996,584.398,400.938z M899.504,518.778
		c-12.106-10.296-25.319-19.111-39.454-26.312c8.169-27.682,12.883-58.915,13.684-91.529h77.321
		C948.625,444.996,930.229,487.067,899.504,518.778z"/>
	<g id="_x35_">
		<polygon style="fill:#163260;" points="1905.564,1744.234 1342.34,1744.234 1454.479,1331.391 2014.299,1331.391 		"/>
		<rect x="1342.34" y="1742.191" style="fill:#234270;" width="563.224" height="28.035"/>
		<polygon style="fill:#0B274F;" points="1462.942,1331.391 1442.792,1331.391 1332.958,1742.191 1065.672,1742.191 
			1065.672,1770.226 1351.719,1770.226 1351.719,1745.149 		"/>
	</g>
	<g id="_x34_">
		<polygon style="fill:#1D3F70;" points="724.835,1768.318 579.471,1768.318 551.833,1530.266 752.473,1530.266 		"/>
		<path style="fill:#F49F9F;" d="M753.544,1566.109H550.762c-10.539,0-17.387-11.1-12.657-20.519l8.577-17.081
			c3.158-6.289,9.594-10.259,16.631-10.259h177.68c7.038,0,13.473,3.97,16.631,10.259l8.577,17.081
			C770.931,1555.009,764.084,1566.109,753.544,1566.109z"/>
		<path style="fill:#F9C0C0;" d="M745.621,1520.795H558.685l7.581-10.044c6.601-8.745,16.923-13.886,27.88-13.886H710.16
			c10.957,0,21.279,5.141,27.88,13.886L745.621,1520.795z"/>
		<path style="fill:#F49F9F;" d="M730.974,1714.646H572.605c-3.211,0-5.912-2.407-6.28-5.597l-9.871-85.516
			c-0.433-3.754,2.501-7.046,6.28-7.046h178.112c3.779,0,6.713,3.293,6.28,7.046l-9.872,85.516
			C736.885,1712.239,734.185,1714.646,730.974,1714.646z"/>
	</g>
	<path id="_x33_" style="fill:#395B96;" d="M147.046,1812.672h2705.908c12.248,0,22.177-9.929,22.177-22.177v0
		c0-12.248-9.929-22.177-22.177-22.177H147.046c-12.248,0-22.177,9.929-22.177,22.177v0
		C124.869,1802.743,134.798,1812.672,147.046,1812.672z"/>
	<g id="_x32__3_">
		<path style="fill:#FFFFFF;" d="M2033.187,551.812c0,0-456.687,0-456.69,0.001c-134.035,2.678-79.28,197.355-89.858,280.254
			c0,46.275,34.983,84.364,79.941,89.304c0.339,20.749,1.948,41.194,0.687,49.679c-0.353,17.563,15.122,32.917,32.59,32.594
			c12.344,4.62,92.132-60.901,120.388-81.716c134.994,0,312.941,0,312.941,0c49.629,0,89.86-40.232,89.86-89.861V641.672
			C2123.048,592.044,2082.816,551.812,2033.187,551.812z"/>
		<path style="fill:#7689D6;" d="M2090.451,641.666v190.405c0,31.628-25.643,57.258-57.258,57.258h-456.699
			c-31.615,0-57.258-25.63-57.258-57.258V641.666c0-31.615,25.643-57.258,57.258-57.258h456.699
			C2064.808,584.408,2090.451,610.051,2090.451,641.666z"/>
		<path style="fill:#677CC1;" d="M1519.236,832.071c0,31.628,25.643,57.258,57.258,57.258h23.373v81.726l110.346-81.726h322.98
			c31.615,0,57.258-25.63,57.258-57.258V641.666C1874.849,857.282,1519.236,832.071,1519.236,832.071z"/>
		<path style="fill:#FFFFFF;" d="M1881.278,677.485h-304.187c-8.758,0-15.858-7.1-15.858-15.858c0-8.758,7.1-15.858,15.858-15.858
			h304.187C1901.919,645.844,1902.092,677.393,1881.278,677.485z"/>
		<path style="fill:#FFFFFF;" d="M1699.802,752.727h-122.711c-20.701-0.085-20.767-31.625,0.001-31.716c-0.001,0,122.71,0,122.71,0
			C1720.503,721.097,1720.568,752.636,1699.802,752.727z"/>
		<path style="fill:#FFFFFF;" d="M2032.597,752.727h-259.042c-8.758,0-15.858-7.1-15.858-15.858s7.1-15.858,15.858-15.858h259.042
			C2053.253,721.088,2053.398,752.635,2032.597,752.727z"/>
		<path style="fill:#FFFFFF;" d="M1827.948,827.969h-250.857c-20.66-0.077-20.799-31.624,0.001-31.715c-0.001,0,250.856,0,250.856,0
			C1848.608,796.331,1848.747,827.877,1827.948,827.969z"/>
		<path style="fill:#8A9EDD;" d="M2006.483,584.408c-385.012,0-474.466,64.202-487.247,75.524
			c-4.753-37.997,15.75-75.229,57.26-75.524C1576.494,584.408,2006.483,584.408,2006.483,584.408z"/>
	</g>
	<g id="_x31_">
		<g>
			<path style="fill:#8A9EDD;" d="M2353.674,1522.374h-62.659C2114.284,875.423,2535.999,1007.68,2353.674,1522.374z"/>
			<path style="fill:#3A72AA;" d="M2353.674,1522.374c0,0-46.914,11.089-45.007,0c48.544-282.268,2.666-436.897,2.666-436.897
				C2482.01,1074.025,2353.674,1522.374,2353.674,1522.374z"/>
		</g>
		<g>
			<path style="fill:#7689D6;" d="M2527.791,1240.09c-9.514,103.922-74.328,196.9-128.121,282.261h-71.561
				c6.355-98.421,22.288-205.153,77.02-289.934C2430.616,1171.54,2527.948,1156.697,2527.791,1240.09z"/>
			<path style="fill:#8A9EDD;" d="M2527.791,1240.09c0,3.837-1.139,11.952-1.139,11.952c-50.903-8.115-80.7-32.609-96.734-51.79
				c2.844-3.388,5.71-5.677,8.907-7.89C2453.48,1209.871,2481.215,1232.516,2527.791,1240.09z"/>
			<path style="fill:#8A9EDD;" d="M2516.725,1300.044c-1.18,3.738-2.459,7.574-3.835,11.41
				c-72.765-8.845-104.682-50.472-114.842-67.676c2.213-3.836,4.623-7.623,7.082-11.361
				C2411.907,1245.8,2444.463,1292.203,2516.725,1300.044z"/>
			<path style="fill:#8A9EDD;" d="M2497.199,1350.9c-1.673,3.738-3.393,7.525-5.115,11.263
				c-69.2-3.148-106.382-36.297-122.908-58.085c1.673-4.427,3.394-8.853,5.263-13.181
				C2387.936,1311.574,2428.811,1348.45,2497.199,1350.9z"/>
			<path style="fill:#8A9EDD;" d="M2465.821,1414.149c-2.066,3.738-4.082,7.377-6.098,11.017
				c-57.495-4.23-92.675-28.513-111.905-49.613c0.614-4.966,2.964-8.62,4.046-12.899
				C2372.91,1384.072,2405.366,1410.263,2465.821,1414.149z"/>
			<path style="fill:#8A9EDD;" d="M2429.228,1476.07c-2.36,3.738-4.672,7.427-6.983,11.066
				c-42.887-6.984-70.528-25.771-86.906-41.805c0.688-5.016,1.378-10.033,2.213-15.099
				C2352.503,1445.97,2384.768,1469.529,2429.228,1476.07z"/>
		</g>
		<g>
			<path style="fill:#7689D6;" d="M2227.384,1522.374h-70.756C1933.994,1225.898,2209.534,1168.719,2227.384,1522.374z"/>
			<path style="fill:#8A9EDD;" d="M2227.384,1522.374h-43.006c-77.421-107.932-94.258-196.539-94.343-239.34
				C2191.048,1229.17,2227.611,1522.142,2227.384,1522.374z"/>
		</g>
		<g>
			<path style="fill:#3A72AA;" d="M2302.534,1522.351h-86.907c1.551,3.697-27.703-51.267-38.805-77.955h-0.049
				c-24.137-56.755-55.477-133.243-43.086-194.518c6.908-48.417,76.047-67.511,108.844-34.427
				C2307.233,1272.778,2305.193,1462.798,2302.534,1522.351z"/>
			<path style="fill:#7689D6;" d="M2302.091,1418.969c-0.377-6.053-0.709-12.485-1.279-18.689l-47.855,66.348l-19.133-76.135
				l54.003-81.005c-1.237-5.603-2.644-10.973-4.18-16.378l-53.756,81.792l-22.772-90.694l43.577-60.348
				c-2.558-3.049-5.312-5.902-8.165-8.41l-39.199,53.659l-16.771-69.151c-4.179,0.742-8.359,1.811-12.148,3.099l17.607,70.036
				l-58.478-22.427c-0.88,3.52-1.51,7.25-1.968,11.116l64.036,25.624l23.068,91.825l-77.611-33.051
				c1.278,4.98,2.736,9.945,4.229,14.903l77.021,32.657l19.279,76.775l-64.823-26.116c2.221,5.568,4.797,10.535,7.033,15.493
				l61.429,24.935c3.086,5.22,6.525,44.499,15.539,43.528c14.357,0.615-4.882-40.832-4.03-46.626l45.347-62.659
				C2302.091,1419.018,2302.091,1419.018,2302.091,1418.969z"/>
		</g>
		<g>
			<rect x="2155.898" y="1522.362" style="fill:#FCB4B4;" width="243.068" height="245.353"/>
			<path style="fill:#F49F9F;" d="M2398.966,1522.362v245.353h-243.068C2155.898,1767.715,2398.966,1763.919,2398.966,1522.362z"/>
		</g>
	</g>
</g>
</svg>
